<svg width="20" height="20" viewBox="0 0 20 20" fill="none" xmlns="http://www.w3.org/2000/svg">
<path fill-rule="evenodd" clip-rule="evenodd" d="M13.3541 7.33467C12.6805 7.99128 12.022 8.63283 11.3905 9.24757C9.24881 7.0995 7.06928 4.91333 4.87993 2.71681C5.15897 2.67777 5.40109 2.77937 5.63807 2.91483C6.7014 3.52382 7.76509 4.13227 8.8288 4.74074L8.83191 4.74251C9.49159 5.11987 10.1513 5.49722 10.8109 5.87472C11.5616 6.30414 12.3118 6.73357 13.0624 7.16347C13.1212 7.19724 13.1796 7.23177 13.242 7.26862C13.2778 7.28978 13.3149 7.31169 13.3541 7.33467ZM10.7472 9.91258C8.59148 7.74287 6.41662 5.55388 4.20998 3.33338C4.20467 3.38023 4.19838 3.42471 4.19231 3.46757C4.17969 3.55678 4.16806 3.63897 4.16838 3.72094C4.16604 7.8614 4.16604 12.0014 4.16838 16.1418C4.16838 16.2284 4.18245 16.3149 4.19525 16.3936L4.19525 16.3936C4.20082 16.4279 4.20615 16.4607 4.20998 16.4913L4.22575 16.4754C6.41258 14.2749 8.58639 12.0874 10.7472 9.91258ZM11.3917 10.6364C9.25374 12.7877 7.07748 14.9781 4.90122 17.1685L4.90659 17.1993L4.91197 17.2302C4.98694 17.2038 5.0638 17.1807 5.14065 17.1577L5.14066 17.1577L5.14068 17.1577C5.30626 17.1081 5.47185 17.0584 5.61869 16.9752C7.37911 15.9771 9.13534 14.9714 10.8917 13.9657L10.8918 13.9656L10.892 13.9655L12.2148 13.2082C12.455 13.0707 12.6949 12.9326 12.9425 12.7902L12.9426 12.7901L13.3721 12.5432L12.5671 11.7682L12.5662 11.7673C12.1656 11.3817 11.7737 11.0043 11.3917 10.6364ZM12.0513 9.94534C12.7468 10.6452 13.4549 11.3578 14.1836 12.0906C14.3778 11.9778 14.5736 11.8643 14.7706 11.75C15.3915 11.3901 16.0244 11.0231 16.6548 10.6518C16.7464 10.5977 16.8236 10.5121 16.8927 10.4289C17.1419 10.1307 17.1503 9.75862 16.8965 9.46653C16.7815 9.33389 16.6347 9.22054 16.4842 9.12882C16.2034 8.95754 15.917 8.79531 15.6306 8.63312C15.5308 8.57663 15.4311 8.52014 15.3316 8.46328C15.1154 8.33969 14.899 8.21639 14.683 8.09338C14.5086 7.99402 14.3345 7.89485 14.1612 7.79586C13.9234 8.03816 13.6869 8.279 13.4519 8.5184C12.9793 8.99981 12.5124 9.47541 12.0513 9.94534Z" fill="#292930"/>
</svg>
