<svg width="20" height="20" viewBox="0 0 20 20" fill="none" xmlns="http://www.w3.org/2000/svg">
<path d="M14.2987 16.9593C13.468 17.7752 12.5514 17.648 11.6778 17.2633C10.749 16.8708 9.89984 16.846 8.91891 17.2633C7.69734 17.7969 7.04901 17.6418 6.31331 16.9593C2.15968 12.6314 2.77276 6.0389 7.49349 5.79071C8.63842 5.85276 9.44003 6.43135 10.1144 6.47944C11.1168 6.27313 12.0763 5.68213 13.1492 5.75969C14.4382 5.86517 15.4023 6.38016 16.046 7.30622C13.3944 8.91945 14.0228 12.4562 16.4583 13.4489C15.9709 14.7442 15.3455 16.0239 14.2972 16.9701L14.2987 16.9593ZM10.0225 5.74417C9.89831 3.8207 11.4387 2.23849 13.2105 2.08337C13.4542 4.30157 11.218 5.96134 10.0225 5.74417Z" fill="#292930"/>
</svg>
